# xmcd
#
# Track frame offsets: 
#        150
#        11576
#        23221
#        36093
#        46862
#        58182
#        68835
#        79919
#        90569
#        102349
#        113394
#        124576
#        138293
#        149480
#
# Disc length: 2149 seconds
#
# Revision: 0
# Processed by: cddbd v1.5.2PL0 Copyright (c) Steve Scherf et al.
# Submitted via: ExactAudioCopy v0.99pb1
#
DISCID=b508630e
DTITLE=Patsy Cline - Wanted
DYEAR=2003
DGENRE=Country
TTITLE0=Walking After Midnight
TTITLE1=A Poor Man's Roses (Or A Rich Man's Gold)
TTITLE2=Life's Railway To Heaven
TTITLE3=I Cried All The Way To The Altar
TTITLE4=Crazy Dreams
TTITLE5=I Can See An Angel Walkin'
TTITLE6=Stop The World And Let Me Off
TTITLE7=Honky Tonk Merry Go Around
TTITLE8=Today, Tomorrow and Forever
TTITLE9=A Stranger In My Arms
TTITLE10=Hungry For Love
TTITLE11=A Church, A Courtroom And Then Goodbye
TTITLE12=Just Out Of Reach
TTITLE13=If I Could Only Stay Asleep
EXTD=
EXTT0=
EXTT1=
EXTT2=
EXTT3=
EXTT4=
EXTT5=
EXTT6=
EXTT7=
EXTT8=
EXTT9=
EXTT10=
EXTT11=
EXTT12=
EXTT13=
PLAYORDER=
